<svg xmlns="http://www.w3.org/2000/svg" version="1.1" xmlns:xlink="http://www.w3.org/1999/xlink" width="512" height="512" x="0" y="0" viewBox="0 0 512 512" style="enable-background:new 0 0 512 512" xml:space="preserve" class=""><g><path d="m448.294 391.565-14.004-2.761-4.892-11.793 7.954-11.861a7.002 7.002 0 0 0-.864-8.849l-20.703-20.703a7 7 0 0 0-8.849-.863l-11.861 7.954-11.792-4.892-2.762-14.005a7.001 7.001 0 0 0-6.868-5.646h-6.433c6.268-9.677 12.259-20.573 18.411-33.457 6.167-12.917 2.062-25.114-6.153-32.943 4.995-3.196 8.322-8.78 8.322-15.137v-8.337c10.642-1.194 18.945-10.238 18.945-21.194v-19.534c0-16.023 7.788-26.889 16.806-39.47 11.215-15.646 23.926-33.379 23.926-64.098 0-24.753-9.716-45.572-28.097-60.209-16.009-12.748-37.448-19.769-60.367-19.769s-44.357 7.021-60.366 19.769c-18.381 14.637-28.097 35.456-28.097 60.209 0 30.719 12.711 48.451 23.926 64.097 9.018 12.581 16.806 23.446 16.806 39.471v19.534c0 10.956 8.302 20 18.944 21.194v8.337c0 5.771 2.745 10.901 6.985 14.191-1.781 1.818-3.398 3.965-4.801 6.464-27.099 48.303-59.154 73.616-134.826 50.567-6.182-3.506-10.359-8.857-12.461-15.943 3.83-3.116 7.429-6.739 10.744-10.887 9.895-12.383 16.589-28.53 18.987-45.659 12.308-16.417 11.654-52.871 3.67-78.524a6.998 6.998 0 0 0-7.751-4.838c-16.702 2.58-32.615-1.201-46.655-4.537-19.583-4.653-39.786-9.454-52.871 8.557-4.182-.4-8.551.438-12.589 2.476-7.596 3.832-13.167 11.559-15.688 21.757-2.718 10.994-2.042 37.817 5.005 54.15 2.278 17.485 9.038 34.005 19.118 46.619 3.314 4.147 6.914 7.77 10.743 10.886-2.067 6.973-6.146 12.264-12.166 15.772-4.589 1.304-9.857 2.651-15.425 4.071-16.964 4.331-36.191 9.24-47.513 15.877-15.399 9.029-20.894 19.119-22.616 41.525l-.01.151c-2.529 45.915-.892 86.97 1.334 132.054a7 7 0 0 0 6.992 6.654l198.621.006a7 7 0 0 0 7-7V398.462a7.454 7.454 0 0 1 7-7.43c16.225-.972 31.354-3.711 45.139-8.146l-2.454 5.917-14.004 2.761a7 7 0 0 0-5.646 6.868v29.278a7 7 0 0 0 5.646 6.868l14.004 2.761 4.892 11.793-7.954 11.861a7 7 0 0 0 .864 8.849l20.703 20.703a7 7 0 0 0 8.849.863l11.861-7.954 11.792 4.892 2.762 14.005a7.001 7.001 0 0 0 6.868 5.646h29.279a7 7 0 0 0 6.868-5.646l2.762-14.005 11.792-4.892 11.861 7.954a7.002 7.002 0 0 0 8.849-.863l20.703-20.703a7 7 0 0 0 .864-8.849l-7.954-11.861 4.892-11.793 14.004-2.761a7.001 7.001 0 0 0 5.646-6.868v-29.278a7 7 0 0 0-5.646-6.868zM344.227 228.416h29.574v8.194c0 2.153-1.819 3.973-3.972 3.973h-21.63c-2.153 0-3.973-1.819-3.973-3.973v-8.194zm-38.372-88.498c-10.474-14.612-21.304-29.722-21.304-55.94 0-45.331 38.6-65.978 74.463-65.978s74.464 20.646 74.464 65.978c0 26.219-10.831 41.329-21.305 55.941-9.313 12.992-18.931 26.42-19.405 46.108h-13.456v-52.553c0-.594.003-1.183.009-1.766 11.764-4.584 21.289-13.179 26.616-24.6 6.323-13.557 6.27-25.707-.142-32.504-4.223-4.476-10.392-5.698-16.504-3.271-10.261 4.076-21.145 19.23-23.509 49.56-2.319.375-4.597.549-6.768.549s-4.449-.174-6.768-.549c-2.365-30.329-13.249-45.483-23.509-49.56-6.113-2.428-12.282-1.205-16.504 3.271-6.412 6.797-6.464 18.947-.142 32.504 5.327 11.421 14.852 20.016 26.616 24.6.006.583.01 1.172.01 1.766v52.553h-13.456c-.474-19.689-10.091-33.116-19.405-46.109zm74.57-24.363c2.279-17.034 7.666-26.816 12.441-30.297 1.33-.97 2.22-1.142 2.539-1.142.053 0 .09.005.111.012.963.52 2.843 6.109-2.266 17.063-3.023 6.482-7.616 11.153-12.825 14.363zm-15.112 70.473h-12.596v-50.923c4.128.447 8.468.447 12.596 0zm-27.708-70.473c-5.209-3.21-9.802-7.881-12.825-14.363-5.109-10.954-3.229-16.544-2.272-17.062a.433.433 0 0 1 .118-.012c.326 0 1.214.175 2.538 1.14 4.775 3.48 10.163 13.263 12.441 30.297zm-12.321 91.524v-7.052h67.463v7.052c0 4.046-3.291 7.337-7.336 7.337H332.62c-4.045 0-7.336-3.291-7.336-7.337zM96.563 183.594c1.526-6.172 4.51-10.653 8.404-12.617 1.396-.705 2.875-1.064 4.258-1.064.924 0 1.805.16 2.589.486a6.997 6.997 0 0 0 8.814-3.08c7.395-13.388 18.286-11.472 40.258-6.253 13.647 3.242 28.92 6.871 45.846 5.481 3.984 15.666 4.513 31.803 2.632 43.938-2.906-5.906-7.363-10.794-14.545-12.085-6.275-1.128-13.753.578-22.413 2.552-13.16 3-28.075 6.4-42.546 1.377-8.782-3.048-20.809-7.221-27.768 3.323-2.1 3.182-3.58 6.448-5.007 9.607-2.046-11.833-2.094-25.301-.521-31.666zm5.582 51.023c3.637-4.623 5.763-9.314 7.669-13.531 1.267-2.803 2.463-5.45 3.962-7.722.155-.235.265-.337.29-.354.692-.375 3.194-.233 11.204 2.545 18.261 6.339 36.749 2.123 50.247-.954 6.87-1.566 13.359-3.044 16.824-2.422 5.203.935 7.447 13.261 8.652 19.882l.107.582c-3.536 26.906-20.416 56.304-49.616 58.488-28.488-2.131-45.254-30.164-49.338-56.515zm48.885 70.517a6.853 6.853 0 0 0 .906 0 56.973 56.973 0 0 0 21.058-5.492c2.508 6.355 6.345 11.75 11.398 16.014-9.194 9.908-20.669 15.284-32.91 15.284s-23.715-5.376-32.91-15.284c5.053-4.263 8.891-9.659 11.398-16.014a56.978 56.978 0 0 0 21.059 5.492zM34.083 370.136c1.47-19.015 5.223-24.287 15.733-30.448 9.618-5.639 27.828-10.288 43.895-14.39 4.203-1.073 8.236-2.104 11.989-3.118 10.563 12.721 24.024 20.467 38.783 22.323v149.495l-61.408-.002V389.978a7 7 0 1 0-14 0v104.018H35.1c-2.032-42.069-3.379-80.908-1.018-123.859zm206.137 6.924c-11.307.676-20.163 10.078-20.163 21.404V494l-61.574-.002V344.502c14.708-1.849 28.126-9.55 38.672-22.193 18.761 5.438 35.638 8.16 50.827 8.16 14.93 0 28.235-2.625 40.104-7.872 21.821-9.646 39.258-27.684 56.537-58.482 5.536-9.869 15.761-7.965 20.93-5.284 6.254 3.243 11.957 10.382 7.447 19.826-7.579 15.872-14.85 28.519-22.71 39.49h-5.913a7 7 0 0 0-6.868 5.646l-2.762 14.005-11.792 4.892-11.861-7.954a7.002 7.002 0 0 0-8.849.863l-20.703 20.703a7 7 0 0 0-.864 8.849l2.648 3.948c-13.035 4.349-27.491 7.025-43.107 7.961zm199.722 44.897-12.034 2.373a7 7 0 0 0-5.112 4.187l-7.765 18.719a6.998 6.998 0 0 0 .652 6.58l6.838 10.197-12.564 12.565-10.197-6.839a6.997 6.997 0 0 0-6.581-.652l-18.718 7.765a7 7 0 0 0-4.186 5.111l-2.373 12.035h-17.77l-2.373-12.035a6.997 6.997 0 0 0-4.186-5.111l-18.718-7.765a7.006 7.006 0 0 0-6.581.652l-10.198 6.839-12.564-12.565 6.838-10.197a6.998 6.998 0 0 0 .652-6.58l-7.765-18.719a7.004 7.004 0 0 0-5.112-4.187l-12.035-2.373v-17.769l12.035-2.373a7 7 0 0 0 5.112-4.187l7.765-18.719a6.998 6.998 0 0 0-.652-6.58l-6.838-10.197 12.564-12.565 10.198 6.839a7 7 0 0 0 6.581.652l18.718-7.765a7 7 0 0 0 4.186-5.111l2.373-12.035h17.77l2.373 12.035a6.997 6.997 0 0 0 4.186 5.111l18.718 7.765a7.006 7.006 0 0 0 6.581-.652l10.197-6.839 12.564 12.565-6.838 10.197a6.996 6.996 0 0 0-.652 6.58l7.765 18.719a7.004 7.004 0 0 0 5.112 4.187l12.034 2.373zm-80.925-60.975c-28.723 0-52.09 23.368-52.09 52.091s23.368 52.09 52.09 52.09 52.091-23.367 52.091-52.09-23.368-52.091-52.091-52.091zm0 90.181c-21.003 0-38.09-17.087-38.09-38.09s17.087-38.091 38.09-38.091 38.091 17.088 38.091 38.091-17.087 38.09-38.091 38.09zM445.73 32.157a7 7 0 0 1 2.562-9.562l16.256-9.386a7 7 0 1 1 7 12.124l-16.256 9.386a6.995 6.995 0 0 1-9.562-2.563zm-182.993 106.93a7 7 0 1 1 7 12.124l-16.256 9.385a7 7 0 0 1-9.563-2.563 7 7 0 0 1 2.563-9.562l16.256-9.385zM243.919 15.771a7 7 0 0 1 9.562-2.562l16.256 9.386a7 7 0 0 1-7 12.125l-16.256-9.386a7 7 0 0 1-2.562-9.562zm249.252 71.132a7 7 0 0 1-7 7H467.4a7 7 0 1 1 0-14h18.771a7 7 0 0 1 7 7zm-19.06 71.131a6.999 6.999 0 0 1-9.562 2.563l-16.257-9.385a7 7 0 1 1 7-12.124l16.256 9.385a7 7 0 0 1 2.563 9.562zM224.859 86.903a7 7 0 0 1 7-7h18.771a7 7 0 1 1 0 14h-18.771a7 7 0 0 1-7-7z" fill="#000000" opacity="1" data-original="#000000"></path></g></svg>